<?xml version="1.0" standalone="no"?>
<!DOCTYPE svg PUBLIC "-//W3C//DTD SVG 20010904//EN"
 "http://www.w3.org/TR/2001/REC-SVG-20010904/DTD/svg10.dtd">
<svg version="1.0" xmlns="http://www.w3.org/2000/svg"
 width="200.000000pt" height="200.000000pt" viewBox="0 0 200.000000 200.000000"
 preserveAspectRatio="xMidYMid meet">

<g transform="translate(0.000000,200.000000) scale(0.100000,-0.100000)"
fill="#000000" stroke="none">
<path d="M580 425 c0 -69 3 -85 15 -85 10 0 15 10 15 34 0 33 2 35 38 38 25 2
37 8 37 18 0 10 -12 16 -37 18 -54 5 -51 30 4 34 23 2 43 9 46 16 3 9 -13 12
-57 12 l-61 0 0 -85z"/>
<path d="M722 498 c7 -19 38 -22 38 -4 0 10 -9 16 -21 16 -12 0 -19 -5 -17
-12z"/>
<path d="M1012 428 l3 -83 46 -3 c55 -3 73 13 73 63 0 45 -21 68 -56 63 -24
-4 -28 -1 -28 19 0 16 -6 23 -20 23 -20 0 -21 -5 -18 -82z m83 -23 c0 -23 -4
-30 -20 -30 -21 0 -31 25 -21 51 11 28 41 12 41 -21z"/>
<path d="M724 456 c-3 -7 -4 -35 -2 -62 2 -37 7 -50 21 -52 15 -3 17 5 17 62
0 53 -3 66 -15 66 -9 0 -18 -6 -21 -14z"/>
<path d="M790 404 c0 -50 3 -64 15 -64 11 0 15 11 15 39 0 22 6 44 15 51 8 7
15 9 15 4 0 -5 4 -2 9 6 14 21 5 28 -34 28 l-35 0 0 -64z"/>
<path d="M890 450 c-24 -24 -26 -57 -4 -88 17 -24 62 -30 82 -10 21 21 13 29
-23 22 -23 -4 -35 -2 -35 5 0 6 17 11 40 11 45 0 52 18 24 58 -19 28 -57 29
-84 2z m65 -20 c4 -6 -5 -10 -19 -10 -14 0 -26 5 -26 10 0 6 9 10 19 10 11 0
23 -4 26 -10z"/>
<path d="M1172 458 c-21 -21 -13 -29 24 -22 46 8 39 -11 -7 -21 -66 -15 -47
-70 25 -70 l46 -1 0 51 c0 57 -12 75 -50 75 -14 0 -31 -5 -38 -12z m56 -70
c-5 -16 -48 -24 -48 -9 0 8 17 16 43 20 5 0 7 -5 5 -11z"/>
<path d="M1289 454 c-18 -21 -1 -46 39 -59 46 -13 40 -29 -8 -21 -43 7 -54 -6
-21 -24 32 -16 69 -12 85 11 19 28 10 49 -25 56 -16 3 -32 10 -35 15 -4 6 9 7
30 3 37 -7 46 1 24 23 -17 17 -73 15 -89 -4z"/>
<path d="M1436 455 c-52 -52 -7 -132 62 -111 11 4 23 14 26 22 5 13 0 15 -34
9 -26 -4 -40 -3 -40 4 0 6 18 11 40 11 35 0 40 3 40 23 0 47 -61 74 -94 42z
m59 -25 c4 -6 -5 -10 -19 -10 -14 0 -26 5 -26 10 0 6 9 10 19 10 11 0 23 -4
26 -10z"/>
<path d="M231 213 c-10 -19 -61 -144 -61 -150 0 -2 9 -3 20 -3 11 0 20 7 20
15 0 21 76 21 84 0 3 -8 13 -15 22 -15 11 0 14 5 10 17 -56 152 -73 176 -95
136z m33 -59 c9 -23 8 -24 -13 -24 -14 0 -18 5 -14 20 6 24 19 26 27 4z"/>
<path d="M580 145 c0 -69 3 -85 15 -85 11 0 15 11 15 38 0 45 13 67 34 59 11
-5 16 -19 16 -52 0 -33 4 -45 15 -45 12 0 15 13 15 55 0 44 -4 56 -20 65 -14
8 -26 8 -40 0 -18 -10 -20 -8 -20 20 0 20 -5 30 -15 30 -12 0 -15 -16 -15 -85z"/>
<path d="M1080 215 c0 -8 7 -15 15 -15 8 0 15 7 15 15 0 8 -7 15 -15 15 -8 0
-15 -7 -15 -15z"/>
<path d="M1490 215 c0 -8 7 -15 15 -15 8 0 15 7 15 15 0 8 -7 15 -15 15 -8 0
-15 -7 -15 -15z"/>
<path d="M502 198 c-5 -13 -6 -47 -4 -76 3 -40 9 -55 24 -63 15 -8 23 -8 32 1
8 9 8 14 -1 17 -8 3 -13 21 -13 43 0 21 6 41 13 44 10 5 10 7 0 12 -7 3 -13
14 -13 25 0 26 -29 24 -38 -3z"/>
<path d="M1006 199 c-13 -20 -14 -49 0 -115 2 -12 11 -24 19 -28 18 -6 45 2
45 15 0 5 -7 9 -15 9 -19 0 -21 75 -2 84 10 5 10 7 0 12 -7 3 -13 14 -13 25 0
25 -15 24 -34 -2z"/>
<path d="M1412 198 c-5 -13 -6 -47 -4 -76 3 -40 9 -55 24 -63 15 -8 23 -8 32
1 8 9 8 14 -1 17 -8 3 -13 21 -13 43 0 21 6 41 13 44 10 5 10 7 0 12 -7 3 -13
14 -13 25 0 26 -29 24 -38 -3z"/>
<path d="M747 179 c-44 -26 -40 -99 7 -121 20 -9 30 -8 52 7 18 12 23 20 15
28 -7 7 -15 6 -25 -3 -17 -13 -46 -7 -46 10 0 5 18 10 40 10 32 0 40 4 40 18
0 40 -49 70 -83 51z m51 -36 c2 -8 -6 -13 -22 -13 -25 0 -33 10 -19 24 10 10
36 3 41 -11z"/>
<path d="M911 181 c-7 -5 -22 -6 -32 -4 -17 5 -19 -1 -19 -56 0 -47 3 -61 14
-61 11 0 16 14 18 48 3 39 6 47 23 47 17 0 20 -8 23 -47 2 -34 7 -48 18 -48
10 0 14 14 14 55 0 43 -4 56 -19 65 -23 12 -22 12 -40 1z"/>
<path d="M1173 180 c-45 -18 -42 -103 4 -121 19 -7 31 -6 49 6 42 27 26 49
-16 23 -17 -11 -22 -10 -30 2 -12 19 -12 41 0 60 7 12 12 12 34 0 35 -18 47
-3 17 21 -26 21 -27 21 -58 9z"/>
<path d="M1289 170 l-24 -21 39 6 c29 5 37 3 34 -7 -3 -7 -13 -15 -24 -17 -27
-5 -44 -21 -44 -42 0 -24 35 -43 57 -31 9 5 24 7 34 5 17 -5 19 1 19 43 0 58
-7 70 -41 79 -18 4 -32 0 -50 -15z m51 -69 c0 -14 -18 -23 -30 -16 -6 4 -8 11
-5 16 8 12 35 12 35 0z"/>
<path d="M1583 180 c-44 -18 -42 -103 2 -120 55 -21 106 31 85 85 -7 19 -50
49 -63 44 -1 0 -12 -4 -24 -9z m55 -58 c2 -22 -2 -34 -12 -38 -34 -13 -61 37
-34 64 21 21 43 9 46 -26z"/>
<path d="M1751 181 c-7 -5 -22 -6 -32 -4 -17 5 -19 -1 -19 -56 0 -48 3 -61 15
-61 11 0 15 11 15 38 0 45 13 67 34 59 11 -5 16 -19 16 -52 0 -33 4 -45 15
-45 12 0 15 13 15 55 0 43 -4 56 -19 65 -23 12 -22 12 -40 1z"/>
<path d="M350 135 c0 -61 22 -82 78 -77 l42 4 0 59 c0 52 -2 59 -19 59 -17 0
-20 -8 -23 -47 -2 -36 -7 -49 -20 -51 -15 -3 -18 4 -18 47 0 44 -3 51 -20 51
-17 0 -20 -7 -20 -45z"/>
<path d="M1080 120 c0 -47 3 -60 15 -60 12 0 15 13 15 60 0 47 -3 60 -15 60
-12 0 -15 -13 -15 -60z"/>
<path d="M1490 120 c0 -47 3 -60 15 -60 12 0 15 13 15 60 0 47 -3 60 -15 60
-12 0 -15 -13 -15 -60z"/>
</g>
</svg>
